<?xml version="1.0" standalone="no"?>
<!DOCTYPE svg PUBLIC "-//W3C//DTD SVG 20010904//EN"
 "http://www.w3.org/TR/2001/REC-SVG-20010904/DTD/svg10.dtd">
<svg version="1.0" xmlns="http://www.w3.org/2000/svg"
 width="800.000000pt" height="800.000000pt" viewBox="0 0 800.000000 800.000000"
 preserveAspectRatio="xMidYMid meet">

<g transform="translate(0.000000,800.000000) scale(0.100000,-0.100000)"
fill="#000000" stroke="none">
<path d="M0 4000 l0 -4000 4000 0 4000 0 0 4000 0 4000 -4000 0 -4000 0 0
-4000z m4250 2136 c147 -24 292 -60 409 -101 202 -70 458 -217 648 -369 l81
-66 111 0 111 0 66 -82 c282 -355 440 -746 484 -1203 13 -129 7 -458 -11 -650
-10 -108 -41 -290 -59 -350 -5 -16 -14 -49 -20 -72 -10 -39 -14 -43 -43 -44
-31 0 -34 -5 -94 -127 -76 -156 -177 -309 -298 -450 -401 -468 -902 -738
-1487 -801 -61 -7 -434 -11 -998 -11 l-900 0 0 695 c0 611 2 695 15 695 13 0
15 51 15 400 0 349 -2 400 -15 400 -13 0 -15 96 -15 800 0 704 2 800 15 800
13 0 15 38 15 280 l0 281 933 -4 c833 -3 943 -5 1037 -21z"/>
<path d="M3568 4093 l3 -978 212 1 c229 0 319 12 444 60 58 21 81 24 208 24
l143 0 42 48 c177 199 240 402 240 771 0 170 -15 297 -44 376 l-15 40 0 -80
-1 -80 -28 50 c-104 188 -250 335 -432 434 l-75 41 144 0 c164 0 162 -2 59 77
-83 63 -209 127 -313 159 -85 26 -103 27 -340 32 l-250 4 3 -979z"/>
</g>
</svg>
